<svg xmlns="http://www.w3.org/2000/svg" xmlns:xlink="http://www.w3.org/1999/xlink" viewBox="0 0 741 818"><defs><style>.cls-1{fill:"#000000";clip-rule:evenodd;}.cls-2{clip-path:url(#clip-path);}.cls-3{fill:#000000;}</style><clipPath id="clip-path"><path class="cls-1" d="M735.73,147.82v2.26C740.1,365.38,694.14,607,390.56,804l-13.84,9-13.81-9.19C69.06,608.28,7.34,298.45,5,8.05H5l24-1.34C50,5.55,71.89,5,94.27,5c207.88,0,463.5,59.67,627.39,136.25ZM278.64,285.41c-1.72-10.77-3.45-21.57-5.21-32.33q-45.84,7.72-91.73,16.1c1.72,10.77,3.45,21.49,5.21,32.26Q232.77,293.13,278.64,285.41ZM261.15,176.7q-45.84,7.77-91.72,16.26,2.58,16,5.12,32,45.85-8.37,91.78-16.19Q263.75,192.73,261.15,176.7Zm-201.1-8.2q137.28-27.58,274.79-49.42,50.34-8,100.67-15.19,12.33,76.62,24.58,153.3Q506,250.78,551.91,245q-10.8-67.17-21.51-134.33c-133.63-37.91-283.85-59.07-417-59.42-20.28-.06-40.08.38-59.24,1.3,1.23,41.86,2.91,77.09,5.54,111.65C59.86,166.05,60,167.38,60.05,168.5Zm281.3,585.17c-1.79-1.29-3.56-2.58-5.33-3.89ZM98.72,397.53a770.31,770.31,0,0,0,37.46,103.19q-7.31-45.32-14.61-90.61Q110.16,403.79,98.72,397.53Zm561.83,47.91C689,364.53,700.53,278.08,701,173c-26.2-12.22-54.21-23.73-83.75-34.42q11.29,70.67,22.58,141.37-126.52,14.31-253.18,33.48-13.41-83.88-26.91-167.72c-7.58-4.35-15.12-8.66-22.7-13q4.45,27.66,8.86,55.33Q330,205.73,314,223.6q20.76,12,41.51,24.25,5.54,34.26,11,68.59-126.52,19.57-253,44Q100.14,277.22,86.72,194,73.87,187,61,180.14C67.18,252.81,77.54,318,93.74,379.41c.41,1.59.85,3.22,1.33,5Q224,359.11,353.13,338.87q142.22-22.25,284.53-38.38,3.55,22.14,7.1,44.36-83.52,9.38-167,20.86c1.73,10.84,3.5,21.68,5.22,32.53q83.51-11.46,167-20.78C653.77,401.42,657,422.85,660.55,445.44ZM543,642.19q9.24-10.16,17.91-20.62A567.19,567.19,0,0,0,637,502.69q-7.17.81-14.36,1.66C586.56,571.28,524,644.39,455,683.21A319.67,319.67,0,0,0,543,642.19ZM254.26,677.9a619.38,619.38,0,0,0,59.84,55A424.86,424.86,0,0,0,357,741.23L359,766l1.94,1.3q7.41,5,14.94,9.73c5.27-3.19,10.7-6.57,16.49-10.23l3-1.9,2.1-23.69a411.24,411.24,0,0,0,45.39-9.06,712.94,712.94,0,0,0,73.56-62.42c-46,24.27-90.41,36.11-115.9,37.72l11.6-155.32L416.54,668c36.59-18.61,76.68-54.07,99-88.79-19,35.61-53.23,75.75-87,104C502.71,652.28,570.44,574.48,610,505.84c-62.58,7.44-126.81,16-188.44,25q-3.54-22.26-7.14-44.44Q498,474.07,581.47,463.85q-2.6-16.14-5.18-32.25-83.5,10.26-167,22.63-7.35-45.59-14.64-91.21c-7.58-4.44-15.16-8.83-22.75-13.26q2.48,15.48,5,30.95-84.54,12.93-169.06,28.05,8.77,54.33,17.49,108.6,84.46-14.91,169.06-27.67,3.5,22.1,7.06,44.13-107,16-213.91,35.54c38.05,48.07,86.54,92.29,138.13,113.77-33.73-28.2-67.91-68.34-86.95-104,22.36,34.75,62.56,70.27,99.14,88.86L342.51,557l8.89,118.76,2.36,31.71-.69,0C330.64,706,294,696.64,254.26,677.9Zm-19.5-21.46a319.66,319.66,0,0,0,64.49,26.77c-46.12-26-89.34-67.18-123.71-111.65l-2.12.39a614.27,614.27,0,0,0,48.7,69.39Q228.27,648.94,234.76,656.44Z"/></clipPath></defs><title>bucs-logo-white</title><g id="Layer_2" data-name="Layer 2"><g id="Layer_1-2" data-name="Layer 1"><g class="cls-2"><rect class="cls-3" width="741" height="818"/></g></g></g></svg>