<svg xmlns="http://www.w3.org/2000/svg" viewBox="0 0 1020 192" width="1020" height="192"><linearGradient id="a" gradientUnits="userSpaceOnUse" x1="10.197" y1="595.954" x2="10.878" y2="595.823" gradientTransform="matrix(1206 0 0 -717 -12122 427348)"><stop offset="0" stop-color="#37003c"/><stop offset="1" stop-color="#fc2c80"/></linearGradient><path d="M311 0c80.6 12.7 164 18.9 244 18.9l-78.9 79.3c25.5 1.4 30.9.7 56.8.7 171 0 336.3-32 487.1-90.3V0H311zm647.6 192h61.4v-23c-20.1 8.1-40.6 15.8-61.4 23zM322 153.3l57.8-58.1C249.7 90.7 115 67.7 0 22v103.2c49.6 24.9 102.6 47.7 156.9 66.8h578.7l27.8-27.9c-70.8 13.2-121.5 15.5-196.1 15.5-86.2 0-164.3-8.8-245.3-26.3z" fill-rule="evenodd" clip-rule="evenodd" fill="url(#a)"/></svg>