<svg xmlns="http://www.w3.org/2000/svg" viewBox="0 0 260 75" width="260" height="75"><linearGradient id="a" gradientUnits="userSpaceOnUse" x1="38.801" y1="40.454" x2="257.972" y2="25.997"><stop offset="0" stop-color="#480442"/><stop offset="1" stop-color="#e02675"/></linearGradient><path d="M260 11.1v48.5c-10.4 3.1-21 5.8-31.7 8-23.5 4.8-47.9 7.3-72.7 7.3-3.6 0-5.7.1-7.9.1-2 0-4 0-7.2-.2l21-21c-38.2 0-79.2-5.3-113.7-16.3l14.7-14.7C41.2 17.4 20 9.3.5 0h84.7l-4.7 4.7c10.8 2.3 21.3 4.1 32 5.2s21.6 1.7 33.1 1.7c19.8 0 33.3-.6 52-4.1L173 32.2c28.8-3 59.3-10.5 87-21.1z" fill-rule="evenodd" clip-rule="evenodd" fill="url(#a)"/></svg>